<svg xmlns="http://www.w3.org/2000/svg" viewBox="0 0 120 40" width="480" height="160">
  <rect width="120" height="40" rx="8" fill="#24292f" />
  <g transform="translate(10,6)">
    <!-- Simple GitHub mark (stylized octocat head simplified) -->
    <path fill="#fff" d="M9 0C4.029 0 0 4.03 0 9c0 4.472 2.906 8.26 6.946 9.59.507.093.69-.22.69-.488 0-.241-.009-.877-.014-1.722-2.826.616-3.42-1.36-3.42-1.36-.462-1.177-1.128-1.492-1.128-1.492-.923-.63.07-.618.07-.618 1.02.072 1.557 1.048 1.557 1.048.908 1.556 2.383 1.107 2.96.847.092-.657.354-1.107.645-1.362-2.257-.257-4.633-1.129-4.633-5.018 0-1.108.395-2.015 1.042-2.725-.105-.257-.452-1.29.098-2.687 0 0 .848-.272 2.78 1.04A9.65 9.65 0 0 1 9 6.45c.86.004 1.724.116 2.533.341 1.932-1.31 2.778-1.04 2.778-1.04.55 1.397.203 2.43.099 2.687.648.71 1.04 1.617 1.04 2.725 0 3.9-2.38 4.757-4.645 5.008.364.314.687.933.687 1.882 0 1.358-.013 2.454-.013 2.79 0 .27.18.585.695.486C22.094 17.26 25 13.472 25 9c0-4.97-4.029-9-9-9z"/>
  </g>
  <text x="40" y="25" fill="#fff" font-family="Arial, Helvetica, sans-serif" font-size="12">Entrar con GitHub</text>
</svg>
